<svg width="23" height="22" viewBox="0 0 23 22" fill="none" xmlns="http://www.w3.org/2000/svg">
<g clip-path="url(#clip0_20_2484)">
<path d="M5.1481 13.087L4.4519 15.686L1.90732 15.7398C1.14686 14.3294 0.715515 12.7156 0.715515 11.0007C0.715515 9.34238 1.11881 7.77858 1.83368 6.40161H1.83423L4.09962 6.81694L5.092 9.06874C4.8843 9.67427 4.77109 10.3243 4.77109 11.0007C4.77117 11.7348 4.90414 12.4381 5.1481 13.087Z" fill="#FBBB00"/>
<path d="M20.5408 9.13232C20.6556 9.73727 20.7155 10.362 20.7155 11.0005C20.7155 11.7165 20.6402 12.4149 20.4968 13.0885C20.01 15.3809 18.738 17.3826 16.9758 18.7992L16.9753 18.7986L14.1219 18.653L13.7181 16.132C14.8873 15.4463 15.8011 14.3732 16.2825 13.0885H10.935V9.13232H16.3605H20.5408Z" fill="#518EF8"/>
<path d="M16.9769 18.7984L16.9775 18.7989C15.2637 20.1765 13.0867 21.0007 10.7168 21.0007C6.90845 21.0007 3.59735 18.872 1.90826 15.7395L5.14905 13.0867C5.99357 15.3406 8.16783 16.9451 10.7168 16.9451C11.8125 16.9451 12.8389 16.6489 13.7197 16.1318L16.9769 18.7984Z" fill="#28B446"/>
<path d="M17.0983 3.30227L13.8586 5.95456C12.947 5.38477 11.8695 5.05562 10.7151 5.05562C8.10839 5.05562 5.89346 6.73369 5.09125 9.06842L1.83343 6.40129H1.83289C3.49724 3.19238 6.8501 1 10.7151 1C13.1415 1 15.3663 1.86433 17.0983 3.30227Z" fill="#F14336"/>
</g>
<defs>
<clipPath id="clip0_20_2484">
<rect width="22.0632" height="22" fill="white" transform="translate(0.215515)"/>
</clipPath>
</defs>
</svg>
