<svg width="110" height="110" viewBox="0 0 110 110" fill="none" xmlns="http://www.w3.org/2000/svg">
<g filter="url(#filter0_d_8_2467)">
<circle cx="55" cy="55" r="35" fill="black"/>
<circle cx="55" cy="55" r="34.5" stroke="#00F0FF"/>
</g>
<path d="M70.4256 32.9214C74.2489 32.9608 77.2917 36.1374 77.1664 39.959L76.3632 64.4705C76.1652 70.5118 68.7837 73.324 64.6161 68.9458L52.0358 55.7299L40.8526 44.2341C36.6271 39.8905 39.748 32.6055 45.8075 32.6679L70.4256 32.9214Z" fill="#00F0FF"/>
<path fill-rule="evenodd" clip-rule="evenodd" d="M54.2183 53.6297L66.8099 66.8576C69.1252 69.2899 73.226 67.7276 73.336 64.3713L74.1393 39.8598C74.2089 37.7367 72.5185 35.9719 70.3944 35.95L45.7763 35.6965C42.4099 35.6618 40.6761 39.7091 43.0236 42.1222L54.2183 53.6297ZM77.1664 39.959C77.2917 36.1374 74.2489 32.9608 70.4256 32.9214L45.8075 32.6679C39.748 32.6055 36.6271 39.8905 40.8526 44.2341L52.0358 55.7299L64.6161 68.9458C68.7837 73.324 76.1652 70.5118 76.3632 64.4705L77.1664 39.959Z" fill="black"/>
<path d="M59.6485 44.3975C63.4718 44.4368 66.5146 47.6135 66.3893 51.435L65.5861 75.9465C65.3881 81.9879 58.0066 84.8001 53.839 80.4219L41.2588 67.2059L30.0755 55.7102C25.85 51.3666 28.9709 44.0816 35.0304 44.144L59.6485 44.3975Z" fill="#00F0FF"/>
<path fill-rule="evenodd" clip-rule="evenodd" d="M43.4412 65.1058L56.0328 78.3337C58.3481 80.766 62.4489 79.2037 62.5589 75.8473L63.3622 51.3358C63.4318 49.2128 61.7414 47.448 59.6173 47.4261L34.9992 47.1726C31.6328 47.1379 29.899 51.1851 32.2465 53.5982L43.4412 65.1058ZM66.3893 51.435C66.5146 47.6135 63.4718 44.4368 59.6485 44.3975L35.0304 44.144C28.9709 44.0816 25.85 51.3666 30.0755 55.7102L41.2588 67.2059L53.839 80.4219C58.0066 84.8001 65.3881 81.9879 65.5861 75.9465L66.3893 51.435Z" fill="black"/>
<defs>
<filter id="filter0_d_8_2467" x="0" y="0" width="110" height="110" filterUnits="userSpaceOnUse" color-interpolation-filters="sRGB">
<feFlood flood-opacity="0" result="BackgroundImageFix"/>
<feColorMatrix in="SourceAlpha" type="matrix" values="0 0 0 0 0 0 0 0 0 0 0 0 0 0 0 0 0 0 127 0" result="hardAlpha"/>
<feOffset/>
<feGaussianBlur stdDeviation="10"/>
<feComposite in2="hardAlpha" operator="out"/>
<feColorMatrix type="matrix" values="0 0 0 0 0 0 0 0 0 0.94 0 0 0 0 1 0 0 0 1 0"/>
<feBlend mode="normal" in2="BackgroundImageFix" result="effect1_dropShadow_8_2467"/>
<feBlend mode="normal" in="SourceGraphic" in2="effect1_dropShadow_8_2467" result="shape"/>
</filter>
</defs>
</svg>
