<svg width="210" height="24" viewBox="0 0 210 24" fill="none" xmlns="http://www.w3.org/2000/svg">
<path d="M199.482 19.8783H190.974V14.938H199.482C200.647 14.938 201.57 14.8406 202.25 14.6457C202.93 14.4508 203.415 14.0123 203.707 13.3302C203.998 12.6287 204.144 11.547 204.144 10.0854C204.144 8.60429 203.998 7.52269 203.707 6.84059C203.415 6.1585 202.93 5.72001 202.25 5.52512C201.57 5.33024 200.647 5.2328 199.482 5.2328H190.974V0.29248H199.482C201.638 0.29248 203.503 0.682249 205.076 1.46178C206.649 2.22183 207.863 3.33267 208.718 4.79431C209.573 6.25594 210 8.01964 210 10.0854C210 12.1512 209.573 13.9149 208.718 15.3765C207.863 16.8382 206.649 17.9587 205.076 18.7383C203.503 19.4983 201.638 19.8783 199.482 19.8783ZM195.082 19.8783H189.604V0.29248H195.082V19.8783Z" fill="#00F0FF"/>
<path d="M170.138 19.8783H163.99L172.41 0.29248H180.248L188.698 19.8783H182.404L177.771 8.56532L176.489 5.26203H176.111L174.858 8.56532L170.138 19.8783ZM183.366 16.2535H168.972V11.3132H183.366V16.2535Z" fill="#00F0FF"/>
<path d="M153.549 20.1707C151.277 20.1707 149.402 19.8296 147.926 19.1475C146.469 18.446 145.381 17.4618 144.663 16.195C143.944 14.9088 143.585 13.3984 143.585 11.664V0.29248H149.062V11.2255C149.062 12.1609 149.179 12.8917 149.412 13.4179C149.645 13.9441 150.082 14.3144 150.723 14.5288C151.383 14.7431 152.326 14.8503 153.549 14.8503C154.792 14.8503 155.735 14.7431 156.376 14.5288C157.017 14.3144 157.454 13.9441 157.687 13.4179C157.92 12.8917 158.036 12.1609 158.036 11.2255V0.29248H163.514V11.664C163.514 13.3984 163.155 14.9088 162.436 16.195C161.717 17.4618 160.62 18.446 159.144 19.1475C157.687 19.8296 155.822 20.1707 153.549 20.1707Z" fill="#00F0FF"/>
<path d="M131.314 20.1705C129.061 20.1705 127.119 19.7613 125.487 18.9428C123.875 18.1047 122.641 16.9354 121.787 15.4348C120.932 13.9147 120.505 12.1315 120.505 10.0853C120.505 8.03898 120.932 6.26553 121.787 4.76492C122.641 3.24482 123.875 2.07552 125.487 1.257C127.119 0.419001 129.061 0 131.314 0C133.645 0 135.617 0.419001 137.229 1.257C138.861 2.07552 140.104 3.24482 140.958 4.76492C141.813 6.26553 142.24 8.03898 142.24 10.0853C142.24 12.1315 141.813 13.9147 140.958 15.4348C140.104 16.9354 138.861 18.1047 137.229 18.9428C135.617 19.7613 133.645 20.1705 131.314 20.1705ZM140.376 24H133.179L126.448 15.7564H132.771L140.376 24ZM131.314 14.9086C132.635 14.9086 133.665 14.782 134.403 14.5286C135.141 14.2558 135.656 13.7686 135.947 13.067C136.258 12.3654 136.413 11.3715 136.413 10.0853C136.413 8.77954 136.258 7.78563 135.947 7.10353C135.656 6.40195 135.141 5.92448 134.403 5.67113C133.665 5.39829 132.635 5.26188 131.314 5.26188C129.993 5.26188 128.974 5.39829 128.255 5.67113C127.536 5.92448 127.031 6.40195 126.74 7.10353C126.468 7.78563 126.332 8.77954 126.332 10.0853C126.332 11.3715 126.468 12.3654 126.74 13.067C127.031 13.7686 127.536 14.2558 128.255 14.5286C128.974 14.782 129.993 14.9086 131.314 14.9086Z" fill="#00F0FF"/>
<path d="M110.348 20.1705C108.367 20.1705 106.657 19.9269 105.22 19.4397C103.782 18.933 102.675 18.1632 101.898 17.1303C101.121 16.078 100.733 14.7235 100.733 13.067V12.8916H106.21V13.5055C106.21 13.9342 106.298 14.2753 106.473 14.5286C106.667 14.7625 107.055 14.9281 107.638 15.0256C108.221 15.123 109.124 15.1717 110.348 15.1717C111.455 15.1717 112.271 15.1425 112.795 15.084C113.32 15.0061 113.65 14.8892 113.786 14.7332C113.941 14.5579 114.019 14.324 114.019 14.0317C114.019 13.6809 113.883 13.4178 113.611 13.2424C113.359 13.067 112.834 12.9306 112.038 12.8331L105.919 12.0146C104.715 11.8392 103.705 11.5177 102.889 11.0499C102.073 10.5627 101.461 9.92935 101.053 9.14982C100.645 8.37028 100.441 7.45432 100.441 6.40195C100.441 5.62241 100.607 4.85262 100.937 4.09257C101.267 3.33252 101.801 2.65042 102.539 2.04628C103.277 1.42265 104.249 0.9257 105.453 0.55542C106.657 0.18514 108.143 0 109.911 0C111.989 0 113.699 0.292326 115.039 0.876979C116.399 1.44214 117.409 2.26066 118.069 3.33252C118.749 4.3849 119.089 5.6419 119.089 7.10353V7.27893H113.611V6.84044C113.611 6.37271 113.504 6.00244 113.291 5.7296C113.096 5.45676 112.688 5.26187 112.067 5.14494C111.465 5.02801 110.552 4.96955 109.328 4.96955C108.396 4.96955 107.687 5.01827 107.201 5.11571C106.715 5.19367 106.376 5.32034 106.181 5.49574C106.006 5.67113 105.919 5.90499 105.919 6.19732C105.919 6.3922 105.958 6.5676 106.036 6.72351C106.133 6.85993 106.278 6.96711 106.473 7.04507C106.686 7.12302 106.968 7.19123 107.318 7.24969L113.436 8.15591C115.029 8.38977 116.263 8.79902 117.137 9.38368C118.011 9.94884 118.623 10.6212 118.972 11.4007C119.322 12.1803 119.497 12.989 119.497 13.827C119.497 14.9379 119.186 15.9805 118.564 16.9549C117.962 17.9099 116.991 18.6894 115.651 19.2935C114.31 19.8782 112.543 20.1705 110.348 20.1705Z" fill="#00F0FF"/>
<path d="M85.6987 19.8783H80.2211V0.29248H91.6135C93.3422 0.29248 94.7893 0.526341 95.9548 0.994063C97.1203 1.46179 97.9944 2.14388 98.5771 3.04035C99.1792 3.91733 99.4803 4.99894 99.4803 6.28517C99.4803 7.31806 99.2958 8.21453 98.9267 8.97457C98.5771 9.71513 98.0138 10.3193 97.2368 10.787C96.4598 11.2352 95.4498 11.5373 94.2066 11.6932V11.9855C95.2167 12.2389 95.9354 12.6189 96.3627 13.1256C96.8095 13.6128 97.2174 14.2267 97.5864 14.9673L100.005 19.8783H93.6821L91.3512 15.0842C91.1181 14.597 90.8753 14.217 90.6228 13.9441C90.3703 13.6713 90.0401 13.4861 89.6322 13.3887C89.2243 13.2718 88.661 13.2133 87.9422 13.2133H85.6987V19.8783ZM85.6987 5.2328V9.12074H91.5552C92.3516 9.12074 92.9149 9.00381 93.2451 8.76995C93.5753 8.53608 93.7404 8.00015 93.7404 7.16215C93.7404 6.38261 93.5753 5.86617 93.2451 5.61282C92.9149 5.35947 92.3516 5.2328 91.5552 5.2328H85.6987Z" fill="#00F0FF"/>
<path d="M66.8054 19.8783H61.3278V0.29248H66.8054V19.8783ZM78.664 19.8783H62.8137V14.938H78.664V19.8783ZM78.2269 12.4825H62.8137V7.57141H78.2269V12.4825ZM78.664 5.2328H62.8137V0.29248H78.664V5.2328Z" fill="#00F0FF"/>
<path d="M52.6184 14.938H43.6443V9.99772H52.0065C52.9777 9.99772 53.6673 9.85155 54.0752 9.55923C54.5025 9.2669 54.7162 8.61404 54.7162 7.60064C54.7162 6.60673 54.5025 5.96361 54.0752 5.67129C53.6673 5.37896 52.9777 5.2328 52.0065 5.2328H43.6443V0.29248H52.6184C54.1723 0.29248 55.5126 0.584806 56.6392 1.16946C57.7658 1.73462 58.6302 2.56288 59.2324 3.65423C59.8539 4.7261 60.1647 6.04157 60.1647 7.60064C60.1647 9.14023 59.8539 10.4654 59.2324 11.5763C58.6302 12.6676 57.7658 13.5056 56.6392 14.0903C55.5126 14.6555 54.1723 14.938 52.6184 14.938ZM47.2864 19.8783H41.8087V0.29248H47.2864V19.8783Z" fill="#00F0FF"/>
<path d="M30.2027 20.1707C27.9301 20.1707 26.0556 19.8296 24.5794 19.1475C23.1226 18.446 22.0348 17.4618 21.3161 16.195C20.5974 14.9088 20.238 13.3984 20.238 11.664V0.29248H25.7157V11.2255C25.7157 12.1609 25.8323 12.8917 26.0653 13.4179C26.2984 13.9441 26.7355 14.3144 27.3765 14.5288C28.0369 14.7431 28.979 14.8503 30.2027 14.8503C31.4459 14.8503 32.388 14.7431 33.029 14.5288C33.67 14.3144 34.107 13.9441 34.3401 13.4179C34.5732 12.8917 34.6898 12.1609 34.6898 11.2255V0.29248H40.1674V11.664C40.1674 13.3984 39.8081 14.9088 39.0894 16.195C38.3707 17.4618 37.2732 18.446 35.7969 19.1475C34.3401 19.8296 32.4754 20.1707 30.2027 20.1707Z" fill="#00F0FF"/>
<path d="M9.90642 20.1705C7.92514 20.1705 6.21579 19.9269 4.77839 19.4397C3.34099 18.933 2.2338 18.1632 1.45683 17.1303C0.679853 16.078 0.291365 14.7235 0.291365 13.067V12.8916H5.76903V13.5055C5.76903 13.9342 5.85644 14.2753 6.03126 14.5286C6.22551 14.7625 6.61399 14.9281 7.19672 15.0256C7.77946 15.123 8.68269 15.1717 9.90642 15.1717C11.0136 15.1717 11.8294 15.1425 12.3539 15.084C12.8783 15.0061 13.2086 14.8892 13.3445 14.7332C13.4999 14.5579 13.5776 14.324 13.5776 14.0317C13.5776 13.6809 13.4417 13.4178 13.1697 13.2424C12.9172 13.067 12.3927 12.9306 11.5963 12.8331L5.47767 12.0146C4.27336 11.8392 3.26329 11.5177 2.44747 11.0499C1.63165 10.5627 1.01978 9.92935 0.611867 9.14982C0.203956 8.37028 0 7.45432 0 6.40195C0 5.62241 0.165107 4.85262 0.495321 4.09257C0.825535 3.33252 1.3597 2.65042 2.09783 2.04628C2.83596 1.42265 3.80717 0.9257 5.01148 0.55542C6.21579 0.18514 7.70176 0 9.46937 0C11.5478 0 13.2571 0.292326 14.5974 0.876979C15.9571 1.44214 16.9672 2.26066 17.6276 3.33252C18.3075 4.3849 18.6474 5.6419 18.6474 7.10353V7.27893H13.1697V6.84044C13.1697 6.37271 13.0629 6.00244 12.8492 5.7296C12.655 5.45676 12.2471 5.26187 11.6255 5.14494C11.0233 5.02801 10.1104 4.96955 8.88664 4.96955C7.95427 4.96955 7.24529 5.01827 6.75968 5.11571C6.27407 5.19367 5.93414 5.32034 5.7399 5.49574C5.56508 5.67113 5.47767 5.90499 5.47767 6.19732C5.47767 6.3922 5.51652 6.5676 5.59421 6.72351C5.69134 6.85993 5.83702 6.96711 6.03126 7.04507C6.24493 7.12302 6.52658 7.19123 6.87622 7.24969L12.9949 8.15591C14.5877 8.38977 15.8211 8.79902 16.6952 9.38368C17.5693 9.94884 18.1812 10.6212 18.5308 11.4007C18.8805 12.1803 19.0553 12.989 19.0553 13.827C19.0553 14.9379 18.7445 15.9805 18.1229 16.9549C17.5208 17.9099 16.5496 18.6894 15.2093 19.2935C13.869 19.8782 12.1014 20.1705 9.90642 20.1705Z" fill="#00F0FF"/>
</svg>
